<svg xmlns="http://www.w3.org/2000/svg" width="668.91" height="668.91" viewBox="0 0 668.91 668.91"><g fill="#008D54"><path d="M586.385 143.356l20.53 26.147 9.942-12.719 9.91-12.718c21.982-28.116 16.915-68.757-11.04-90.61l-50.971-39.833c-28.083-21.918-68.725-16.818-90.578 11.201l-19.853 25.404 30.344 13.59 14.946-19.142c10.942-14.009 31.312-16.527 45.289-5.617l50.97 39.834c13.945 10.911 16.463 31.279 5.488 45.289l-14.977 19.174zm-251.947 9.071v193.424h-129.12v32.409h129.12v.129h32.151v-.129h.129v-32.409h-.129V152.427zM194.762 24.856c-21.95-28.116-62.623-33.055-90.578-11.201L53.181 53.488c-28.083 21.918-32.926 62.591-11.04 90.61l19.852 25.405 20.53-26.147-14.946-19.142c-10.943-14.01-8.49-34.378 5.488-45.289l50.97-39.834c13.945-10.911 34.314-8.393 45.289 5.617L184.27 63.85l30.343-13.59-9.942-12.686-9.909-12.718z"/><path d="M43.917 346.108c0 97.519 48.033 183.804 121.761 236.518l-64.076 63.785 22.596 22.499 69.112-68.821c41.771 23.274 89.9 36.541 141.129 36.541 50.195 0 97.389-12.718 138.578-35.12l67.691 67.4 22.597-22.499-62.43-62.172c75.019-52.52 124.085-139.611 124.085-238.131 0-160.465-130.058-290.522-290.521-290.522-160.433 0-290.522 130.09-290.522 290.522zm548.763 0c0 142.614-115.628 258.242-258.241 258.242-142.614 0-258.242-115.628-258.242-258.242 0-142.614 115.628-258.242 258.242-258.242 142.613.001 258.241 115.629 258.241 258.242z"/></g></svg>