<svg xmlns="http://www.w3.org/2000/svg" height="512" viewBox="0 0 512 512" width="512"><g fill="#008D54"><path d="M85.974 227.798a7.543 7.543 0 0 0-7.543 7.543v13.625c0 56.259 25.489 108.308 69.932 142.801l71.253 55.3c2.632 2.043 5.786 3.064 8.941 3.064s6.309-1.021 8.942-3.064l55.731-43.255a7.544 7.544 0 0 0-9.25-11.918l-55.423 43.016-70.944-55.061c-40.734-31.615-64.096-79.319-64.096-130.883v-13.625a7.543 7.543 0 0 0-7.543-7.543zm142.583 232.571c-5.711 0-10.341 4.63-10.341 10.341s4.63 10.341 10.341 10.341 10.341-4.63 10.341-10.341c0-5.712-4.63-10.341-10.341-10.341zm0-419.686c-5.711 0-10.341 4.63-10.341 10.341s4.63 10.341 10.341 10.341 10.341-4.63 10.341-10.341c0-5.712-4.63-10.341-10.341-10.341zm155.667 71.263c0 5.711 4.63 10.341 10.341 10.341s10.341-4.63 10.341-10.341-4.63-10.341-10.341-10.341-10.341 4.63-10.341 10.341zm-333.249 0c0 5.711 4.63 10.341 10.341 10.341s10.341-4.63 10.341-10.341-4.63-10.341-10.341-10.341-10.341 4.63-10.341 10.341z"/><path d="M476.959 462.543V279.57c8.826-4.148 14.955-13.121 14.955-23.502 0-14.311-11.643-25.954-25.955-25.954h-87.276V138.52c0-7.425-5.556-13.652-12.923-14.484-28.757-3.245-55.543-9.345-79.616-18.132-16.15-5.893-30.761-12.928-43.428-20.911-8.601-5.422-19.716-5.421-28.318.001-12.668 7.983-27.279 15.018-43.428 20.91-24.073 8.786-50.859 14.887-79.616 18.132-7.367.832-12.923 7.059-12.923 14.484v61.151a7.543 7.543 0 1 0 15.086 0v-60.697c29.766-3.393 57.562-9.751 82.624-18.897 17.151-6.258 32.729-13.768 46.3-22.32 3.773-2.376 8.46-2.379 12.232-.001 13.57 8.553 29.148 16.062 46.3 22.321 25.062 9.147 52.859 15.503 82.624 18.897v91.139h-40.426c-14.312 0-25.955 11.643-25.955 25.954 0 10.42 6.175 19.42 15.055 23.547v164.177l-56.37 43.75c-7.788 6.043-17.499 9.372-27.344 9.372-9.988 0-19.443-3.24-27.342-9.371l-80.459-62.445c-26.492-20.561-48.29-47.349-63.039-77.466-14.749-30.115-22.544-63.759-22.544-97.294V85.932a3.53 3.53 0 0 1 3.495-3.52l24.457-.178c83.587-.607 124.28-28.911 141.098-45.728a153.353 153.353 0 0 0 14.153-16.289c2.449-3.263 6.185-5.132 10.254-5.132l.032.001a12.603 12.603 0 0 1 10.175 5.128 147.798 147.798 0 0 0 14.058 16.292c13.54 13.539 54.392 45.099 141.098 45.728l24.457.178a3.53 3.53 0 0 1 3.495 3.52v113.425a7.543 7.543 0 1 0 15.086 0V85.932c0-10.185-8.286-18.531-18.47-18.606l-24.457-.178c-81.124-.589-118.315-29.086-130.54-41.309a132.858 132.858 0 0 1-12.618-14.624C245.661 4.108 237.553.021 228.697 0h-.069c-8.859 0-16.991 4.064-22.318 11.159a138.077 138.077 0 0 1-12.756 14.679c-15.185 15.185-52.334 40.742-130.54 41.31l-24.457.178c-10.184.075-18.47 8.421-18.47 18.606v164.406c0 35.822 8.327 71.76 24.081 103.93 15.755 32.171 39.04 60.784 67.338 82.748l80.459 62.445C202.384 507.547 215.379 512 228.557 512c13.177 0 26.173-4.453 36.594-12.54l37.163-28.843a25.814 25.814 0 0 0-5.097 15.427c0 14.312 11.643 25.955 25.955 25.955H465.96c14.311 0 25.955-11.643 25.955-25.955-.001-10.38-6.129-19.353-14.956-23.501zm-149.602-87.369a180.98 180.98 0 0 0 17.534-20.826c5.443 6.596 11.794 12.157 18.734 16.206-17.726 10.343-31.638 30.524-36.268 52.735zm0-57.355c1.688 8.099 4.617 15.923 8.509 23.103a164.646 164.646 0 0 1-8.509 11.569zm13.428 121.252c0-26.866 18.631-54.223 40.685-59.739a9.032 9.032 0 0 0 6.842-8.781 9.032 9.032 0 0 0-6.845-8.777c-22.052-5.515-40.683-32.872-40.683-59.739v-20.012h107.559v20.012c0 26.867-18.631 54.224-40.681 59.739a9.032 9.032 0 0 0-6.847 8.777 9.034 9.034 0 0 0 6.845 8.782c22.052 5.515 40.683 32.872 40.683 59.738v21.018H340.785zm121.088-15.277c-4.524-22.41-18.509-42.82-36.368-53.24 17.86-10.421 31.844-30.83 36.368-53.24zM323.171 245.199h142.788c5.993 0 10.869 4.875 10.869 10.869 0 5.993-4.876 10.87-10.869 10.87H323.171c-5.994 0-10.87-4.876-10.87-10.87.001-5.993 4.877-10.869 10.87-10.869zm142.788 251.715H323.171c-5.994 0-10.87-4.876-10.87-10.87 0-5.993 4.876-10.87 10.87-10.87h142.788c5.993 0 10.869 4.876 10.869 10.87s-4.876 10.87-10.869 10.87z"/><path d="M193.998 319.093h.104c6.977 0 13.456-3.143 17.773-8.623l95.35-121a22.481 22.481 0 0 0 4.699-16.67 22.476 22.476 0 0 0-8.466-15.109 22.489 22.489 0 0 0-16.669-4.699 22.472 22.472 0 0 0-15.109 8.466l-77.322 98.121-35.162-45.914c-7.584-9.905-21.815-11.795-31.725-4.208-4.799 3.675-7.879 8.999-8.674 14.991s.791 11.935 4.466 16.734l52.873 69.04c4.28 5.588 10.771 8.822 17.862 8.871zm-60.246-92.662a7.493 7.493 0 0 1 2.89-4.995 7.512 7.512 0 0 1 4.58-1.552 7.533 7.533 0 0 1 5.996 2.953l41.066 53.623a7.545 7.545 0 0 0 5.937 2.956c2.292-.014 4.536-1.045 5.976-2.875l83.332-105.748a7.493 7.493 0 0 1 5.035-2.822 7.512 7.512 0 0 1 5.558 1.567c1.582 1.247 2.584 3.036 2.821 5.036s-.319 3.974-1.566 5.557l-95.35 121.001a7.5 7.5 0 0 1-5.924 2.874h-.052a7.492 7.492 0 0 1-5.937-2.957l-52.873-69.041a7.48 7.48 0 0 1-1.489-5.577z"/></g></svg>