<svg xmlns="http://www.w3.org/2000/svg" width="512" height="512" viewBox="0 0 512 512"><path d="M5.28 291.905l160 144c4.704 4.256 11.424 5.248 17.216 2.72 5.792-2.592 9.504-8.32 9.504-14.624v-80h48c155.072 0 272-110.048 272-256a15.975 15.975 0 0 0-11.584-15.36 15.05 15.05 0 0 0-4.416-.64 15.997 15.997 0 0 0-13.568 7.52l-4.8 7.68c-48.832 78.24-128.64 128.8-203.392 128.8H192v-80c0-6.304-3.712-12.032-9.504-14.624-5.728-2.464-12.48-1.504-17.216 2.72l-160 144c-3.328 3.04-5.28 7.36-5.28 11.904s1.952 8.864 5.28 11.904z" fill="#008d54" data-original="#000000" xmlns="http://www.w3.org/2000/svg"/></svg>