<svg xmlns="http://www.w3.org/2000/svg" height="464pt" viewBox="0 0 464 464" width="464pt"><path d="M244.023 357.137l1.215-4.504L272 345.777V310.2l-26.762-6.847-1.215-4.504c-2.527-9.399-6.23-18.36-11.007-26.649l-2.336-4.047 14.074-23.746-25.168-25.168-23.746 14.075-4.047-2.336c-8.29-4.778-17.25-8.48-26.648-11.008l-4.504-1.215-6.848-26.762h-35.578l-6.848 26.762-4.504 1.215c-9.398 2.527-18.36 6.23-26.648 11.008l-4.047 2.336-23.742-14.075-25.168 25.168 14.07 23.746-2.336 4.047c-4.777 8.29-8.48 17.25-11.008 26.649l-1.214 4.504L0 310.199v35.578l26.762 6.848 1.215 4.504c2.527 9.398 6.23 18.36 11.007 26.648l2.336 4.047-14.074 23.742 25.168 25.168 23.746-14.07L80.207 425c8.29 4.777 17.25 8.48 26.648 11.008l4.504 1.215 6.848 26.761h35.578l6.848-26.761 4.504-1.215c9.398-2.528 18.36-6.23 26.648-11.008l4.047-2.336 23.742 14.07 25.168-25.168-14.07-23.742 2.336-4.047c4.785-8.28 8.488-17.242 11.015-26.64zM136 423.984c-52.938 0-96-43.062-96-96s43.063-96 96-96 96 43.063 96 96-43.063 96-96 96zm0 0" fill="#008D54"/><path d="M136 247.984c-44.113 0-80 35.887-80 80s35.887 80 80 80 80-35.886 80-80-35.887-80-80-80zm0 128c-26.473 0-48-21.527-48-48s21.527-48 48-48 48 21.528 48 48-21.527 48-48 48zm0 0" fill="#008D54"/><path d="M168 327.984c0 17.672-14.328 32-32 32s-32-14.328-32-32 14.328-32 32-32 32 14.329 32 32zm195.586-103.726C376.312 208.992 384 189.375 384 167.984s-7.688-41-20.414-56.273l-45.984 45.984c1.496 3.137 2.398 6.602 2.398 10.29s-.902 7.152-2.406 10.28zM304 167.984a8 8 0 1 1-16 0 8 8 0 0 1 16 0zm-64.273-67.586l45.984 45.985c3.129-1.496 6.594-2.406 10.281-2.406s7.153.902 10.281 2.406l45.985-45.985c-15.266-12.734-34.883-20.414-56.274-20.414S255 87.672 239.727 100.398zm0 0" fill="#008D54"/><path d="M446.07 143.777l-.879-4.601c-3.91-20.375-11.75-39.344-23.296-56.367l-2.622-3.88 8.422-16.84-25.785-25.784-16.84 8.422-3.879-2.622C364.168 30.56 345.2 22.72 324.824 18.81l-4.601-.88L314.246 0h-36.469l-5.976 17.93-4.602.879c-20.375 3.91-39.344 11.75-56.367 23.296l-3.879 2.622-16.84-8.422-25.785 25.785 8.426 16.84-2.625 3.879c-11.543 17.023-19.387 35.992-23.297 56.367l-.879 4.601L128 149.754v26.23h38.207l7.64 29.832a127.823 127.823 0 0 1 21.794 9.008l26.48-15.687 15.703 15.703 36.582-36.582c-1.504-3.113-2.406-6.578-2.406-10.274s.902-7.152 2.406-10.28l-45.98-45.985C215.688 126.984 208 146.602 208 167.984c0 7.59.969 15.121 2.863 22.375l-15.472 4.067A104.48 104.48 0 0 1 192 167.984c0-57.343 46.656-104 104-104s104 46.657 104 104-46.656 104-104 104a104.55 104.55 0 0 1-25.258-3.09l3.86-15.527A88.465 88.465 0 0 0 296 255.984c21.383 0 41-7.687 56.273-20.418l-45.984-45.98c-3.129 1.492-6.594 2.406-10.281 2.406s-7.153-.902-10.281-2.406l-36.582 36.582 15.703 15.703-15.688 26.48a127.172 127.172 0 0 1 9.008 21.794L288 297.777v38.207h26.23l5.977-17.93 4.602-.878c20.375-3.91 39.343-11.75 56.367-23.297l3.879-2.621 16.84 8.422 25.785-25.793-8.422-16.832 2.62-3.88c11.548-17.023 19.388-35.991 23.298-56.366l.879-4.602L464 186.223v-36.47zm-141.613 159.95l-.984-15.965C366.566 283.887 416 231.273 416 167.984c0-66.168-53.832-120-120-120-63.098 0-115.695 49.262-119.754 112.168l-15.965-1.03C164.871 87.831 224.496 31.983 296 31.983c74.992 0 136 61.008 136 136 0 71.727-56.023 131.352-127.543 135.743zM448 447.984h16v16h-16zm-116.687-16H256v16h68.688l16 16H432v-16h-84.688zm84.687-32h16v16h-16zm-160 0h68.688l16 16H400v-16h-52.688l-16-16H256zM0 7.984h16v16H0zm100.688 32H160v-16h-52.688l-16-16H32v16h52.688zM32 55.984h16v16H32zm32 0v16h28.688l16 16H144v-16h-28.688l-16-16zm0 0" fill="#008D54"/></svg>