<svg xmlns="http://www.w3.org/2000/svg" height="682.667" viewBox="0 0 512.0005 512.0005" width="682.667"><path d="M4.398 465.176l42.426 42.426c5.864 5.863 15.352 5.863 21.211 0l50.73-50.727c25.618-25.617 28.786-65.29 9.54-94.395l30.347-30.347c29.106 19.246 68.778 16.078 94.395-9.54l10.605-10.605-63.64-63.64-1.067 1.066c-29.105-19.242-68.777-16.074-94.39 9.543l-49.43 49.426c-25.613 25.613-28.781 65.285-9.54 94.39L4.399 443.965c-5.863 5.863-5.863 15.347 0 21.21zm185.008-291.074c-5.863 5.863-5.863 15.351 0 21.214l127.278 127.278c5.863 5.863 15.351 5.863 21.214 0l53.032-53.031-148.493-148.497zm74.242-74.247l21.211-21.21 148.493 148.492-21.211 21.21zm95.465-95.457L306.078 57.43 454.57 205.922l53.032-53.035c5.863-5.864 5.863-15.348 0-21.211L380.324 4.398c-5.863-5.863-15.351-5.863-21.21 0zm148.489 42.426L465.176 4.398c-5.863-5.863-15.352-5.863-21.211 0l-10.61 10.606 63.641 63.637 10.606-10.606c5.863-5.863 5.863-15.347 0-21.21zm0 0" fill="#008D54"/></svg>